Coordinates
version=1
nRows=43
nColumns=12
inDegrees=yes

Units are S.I. units (second, meters, Newtons, ...)
Angles are in degrees

endheader
time	SC_y	SC_z	SC_x	AC_y	AC_z	AC_x	GH_y	GH_z	GH_yy	EL_x	PS_y
       0.0              -13.53          12.55          27.32          68.69         -10.67         -11.72         -160.8          14.85          -64.5          38.07          99.17
   0.01457              -13.54          12.55          27.33          68.69         -10.67         -11.72         -160.7          14.85         -64.51          38.08          99.16
   0.02913              -13.54          12.54          27.33          68.68         -10.67         -11.72         -160.7          14.85         -64.51          38.08          99.16
    0.0437              -13.55          12.54          27.34          68.68         -10.67         -11.71         -160.6          14.85         -64.52          38.09          99.15
   0.05826              -13.56          12.54          27.35          68.67         -10.66         -11.71         -160.6          14.85         -64.52           38.1          99.14
   0.07283              -13.57          12.54          27.36          68.67         -10.66         -11.71         -160.5          14.85         -64.52          38.11          99.13
    0.0874              -13.58          12.54          27.36          68.66         -10.66          -11.7         -160.5          14.85         -64.53          38.12          99.12
     0.102              -13.59          12.54          27.37          68.66         -10.66          -11.7         -160.4          14.85         -64.53          38.13          99.11
    0.1165               -13.6          12.54          27.38          68.65         -10.65          -11.7         -160.4          14.85         -64.54          38.15           99.1
    0.1311              -13.61          12.54          27.39          68.64         -10.65         -11.69         -160.3          14.85         -64.54          38.16          99.09
    0.1457              -13.62          12.54          27.41          68.64         -10.65         -11.69         -160.2          14.85         -64.55          38.17          99.08
    0.1602              -13.63          12.53          27.42          68.63         -10.64         -11.69         -160.2          14.85         -64.56          38.19          99.06
    0.1748              -13.65          12.53          27.43          68.62         -10.64         -11.68         -160.1          14.85         -64.56           38.2          99.05
    0.1894              -13.66          12.53          27.45          68.61         -10.64         -11.68         -160.0          14.85         -64.57          38.22          99.03
    0.2039              -13.68          12.53          27.46           68.6         -10.63         -11.67         -159.9          14.85         -64.58          38.24          99.02
    0.2185              -13.69          12.53          27.48          68.59         -10.63         -11.67         -159.8          14.85         -64.59          38.26           99.0
    0.2331              -13.71          12.52           27.5          68.58         -10.62         -11.66         -159.7          14.85          -64.6          38.28          98.98
    0.2476              -13.73          12.52          27.51          68.57         -10.62         -11.65         -159.6          14.85         -64.61          38.31          98.95
    0.2622              -13.76          12.52          27.54          68.56         -10.61         -11.65         -159.4          14.85         -64.62          38.33          98.93
    0.2768              -13.78          12.51          27.56          68.54          -10.6         -11.64         -159.3          14.85         -64.63          38.36           98.9
    0.2913              -13.81          12.51          27.59          68.53         -10.59         -11.63         -159.1          14.84         -64.65           38.4          98.88
    0.3059              -13.84          12.51          27.61          68.51         -10.59         -11.62         -159.0          14.84         -64.66          38.43          98.84
    0.3205              -13.87           12.5          27.65          68.49         -10.58         -11.61         -158.8          14.84         -64.68          38.47          98.81
     0.335              -13.91           12.5          27.68          68.47         -10.57          -11.6         -158.6          14.84          -64.7          38.51          98.77
    0.3496              -13.95          12.49          27.72          68.44         -10.56         -11.59         -158.3          14.84         -64.72          38.56          98.73
    0.3642              -13.99          12.49          27.76          68.42         -10.54         -11.57         -158.0          14.84         -64.74          38.61          98.68
    0.3787              -14.05          12.48          27.81          68.39         -10.53         -11.56         -157.8          14.84         -64.77          38.67          98.62
    0.3933               -14.1          12.47          27.86          68.35         -10.51         -11.54         -157.4          14.83          -64.8          38.74          98.56
    0.4079              -14.17          12.47          27.93          68.31          -10.5         -11.52         -157.0          14.83         -64.83          38.82           98.5
    0.4224              -14.24          12.46           28.0          68.27         -10.48         -11.49         -156.6          14.83         -64.87           38.9          98.42
     0.437              -14.32          12.45          28.08          68.22         -10.45         -11.47         -156.1          14.82         -64.91           39.0          98.33
    0.4516              -14.42          12.43          28.17          68.16         -10.43         -11.44         -155.6          14.82         -64.96          39.11          98.23
    0.4661              -14.53          12.42          28.27           68.1          -10.4          -11.4         -154.9          14.82         -65.01          39.24          98.11
    0.4807              -14.66           12.4          28.39          68.02         -10.36         -11.36         -154.2          14.81         -65.08          39.39          97.97
    0.4953              -14.81          12.39          28.54          67.93         -10.32         -11.31         -153.3          14.81         -65.16          39.57          97.81
    0.5098              -14.99          12.36          28.71          67.83         -10.27         -11.26         -152.3           14.8         -65.25          39.78          97.62
    0.5244               -15.2          12.34          28.91           67.7         -10.21         -11.19         -151.0          14.79         -65.35          40.03           97.4
    0.5389              -15.46           12.3          29.15          67.55         -10.14         -11.11         -149.6          14.78         -65.48          40.33          97.13
    0.5535              -15.76          12.27          29.44          67.37         -10.06         -11.01         -147.8          14.77         -65.64          40.69           96.8
    0.5681              -16.14          12.22           29.8          67.15         -9.959         -10.89         -145.6          14.76         -65.83          41.13          96.41
    0.5826               -16.6          12.16          30.24          66.88         -9.832         -10.75         -142.9          14.74         -66.06          41.67          95.92
    0.5972              -17.18          12.09          30.78          66.54         -9.675         -10.56         -139.5          14.72         -66.36          42.35          95.31
    0.6118              -17.91           12.0          31.47          66.11         -9.476         -10.33         -135.3          14.69         -66.73           43.2          94.53
